<svg version="1.1" id="Layer_1" xmlns="http://www.w3.org/2000/svg" xmlns:xlink="http://www.w3.org/1999/xlink" x="0px" y="0px"
	 width="100%" viewBox="0 0 1024 1024" enable-background="new 0 0 1024 1024" xml:space="preserve">
<path fill="#000000" opacity="1.000000" stroke="none" 
	d="
M394.000061,166.678009 
	C508.152252,166.670151 621.804504,166.700287 735.456543,166.602570 
	C748.590515,166.591278 759.545654,171.121704 768.403442,180.660034 
	C775.619019,188.430084 779.295471,197.792725 779.298523,208.371094 
	C779.328247,310.358124 779.286316,412.345154 779.234009,514.332214 
	C779.233093,516.139893 779.154114,518.050476 778.582764,519.733582 
	C777.413147,523.179382 774.973206,525.319214 771.125244,525.259033 
	C767.136597,525.196655 764.514221,523.067505 763.385925,519.356934 
	C762.867065,517.650574 762.865356,515.744141 762.866394,513.928528 
	C762.923279,414.774750 763.004150,315.621002 763.091125,216.467224 
	C763.093750,213.475388 763.526184,210.444107 763.182312,207.498459 
	C761.463257,192.773346 750.641296,183.219910 735.737366,183.207428 
	C692.742859,183.171387 649.748352,183.184280 606.753845,183.186249 
	C502.433868,183.191025 398.113007,183.428558 293.794647,183.018433 
	C272.555817,182.934937 263.163757,198.332031 263.182037,213.840408 
	C263.398010,397.150208 263.316681,580.460388 263.321106,763.770447 
	C263.321442,778.365234 270.380859,788.373596 283.138031,792.109741 
	C286.247101,793.020264 289.401611,792.904785 292.558289,792.905701 
	C375.881012,792.928955 459.203766,792.938049 542.526489,792.962708 
	C545.182190,792.963501 547.875488,792.696472 550.458191,793.599854 
	C554.407532,794.981201 556.499634,797.803284 556.159302,801.961182 
	C555.817688,806.135254 553.253357,808.613159 549.129333,809.187500 
	C546.998596,809.484131 544.805298,809.375061 542.640259,809.375061 
	C459.317505,809.377197 375.991364,808.943970 292.673981,809.608704 
	C265.437988,809.826050 246.548691,787.864868 246.597702,763.285400 
	C246.964645,579.309448 246.802032,395.332550 246.815735,211.355942 
	C246.817413,188.679413 260.941864,171.206390 282.562317,167.272217 
	C285.809509,166.681351 289.194397,166.691711 292.515839,166.688263 
	C326.177185,166.653305 359.838654,166.673309 394.000061,166.678009 
z"/>
<path fill="#000000" opacity="1.000000" stroke="none" 
	d="
M803.254333,748.745728 
	C816.704041,762.425415 829.904724,775.854309 843.126892,789.262024 
	C858.303040,804.651123 858.101379,828.522400 842.642822,844.037354 
	C827.835571,858.898376 803.940735,858.628418 788.749939,843.403870 
	C771.210693,825.825684 753.739624,808.179016 736.146118,790.655334 
	C723.080261,777.641296 719.940308,761.411804 728.048035,744.996216 
	C729.904480,741.237488 729.301758,739.133179 726.503601,736.416992 
	C718.187012,728.343994 718.182129,728.109497 709.232056,735.111023 
	C687.027161,752.481689 662.021301,763.308044 633.981567,766.034058 
	C594.128479,769.908569 558.386475,759.128052 527.577942,733.362854 
	C498.584717,709.115784 481.689270,677.966064 476.650208,640.542175 
	C466.679993,566.495789 518.381897,495.765625 592.600464,481.424866 
	C664.847351,467.465027 740.989258,510.938721 759.962158,589.273376 
	C770.603455,633.208740 760.753235,673.457092 734.200317,709.768921 
	C729.369568,716.375183 729.255005,716.292053 735.104431,722.207031 
	C735.807556,722.918030 736.626282,723.542969 737.207092,724.341797 
	C740.226807,728.495300 743.344055,728.682983 748.249817,726.614441 
	C763.246704,720.290771 776.998352,723.441589 788.910522,734.312988 
	C793.827820,738.800598 798.325989,743.747559 803.254333,748.745728 
M628.032837,495.508942 
	C611.383240,494.637085 595.210754,497.097748 579.353088,502.168030 
	C518.312866,521.684631 480.733978,587.142517 494.701904,649.749451 
	C509.362762,715.462158 570.803589,758.043884 637.652832,748.821960 
	C697.943604,740.504883 745.177002,688.792175 746.916687,627.946838 
	C748.314148,579.069214 728.068604,540.898682 686.798523,514.420959 
	C669.260925,503.169373 649.719299,497.314667 628.032837,495.508942 
M819.224915,788.276123 
	C805.240112,774.229370 791.326172,760.111084 777.244080,746.162598 
	C768.750244,737.749512 755.443420,738.116150 746.707581,746.710388 
	C738.058960,755.218811 737.629211,768.787415 746.009399,777.244446 
	C764.181458,795.583435 782.426819,813.850525 800.750244,832.038147 
	C809.179443,840.404724 822.909180,840.233887 831.413818,831.938904 
	C839.911194,823.651001 840.154297,810.081482 831.897583,801.330933 
	C827.897522,797.091614 823.786255,792.957153 819.224915,788.276123 
z"/>
<path fill="#000000" opacity="1.000000" stroke="none" 
	d="
M312.241211,387.346893 
	C322.002533,372.776001 335.487335,365.805237 352.539001,365.729523 
	C373.358124,365.637054 394.178101,365.663605 414.997467,365.719788 
	C442.259888,365.793335 462.471863,387.059357 461.521454,414.227020 
	C461.137329,425.206390 461.459778,436.209717 461.414246,447.201965 
	C461.381378,455.145050 458.493958,458.137878 450.596283,458.145996 
	C405.792786,458.192017 360.989197,458.199493 316.185638,458.178040 
	C309.502014,458.174835 305.158356,455.130768 305.091461,449.243744 
	C304.919647,434.116608 303.707245,418.928436 305.871857,403.868286 
	C306.697388,398.124695 308.653931,392.550629 312.241211,387.346893 
M401.499695,382.221191 
	C384.514984,382.228546 367.529236,382.122742 350.545868,382.276245 
	C334.707031,382.419403 321.822235,394.825409 321.242279,410.548981 
	C320.917175,419.362671 321.214783,428.197754 321.078735,437.020844 
	C321.027130,440.367004 322.177551,441.757996 325.709381,441.750702 
	C364.174561,441.671234 402.640015,441.679352 441.105194,441.763031 
	C444.550232,441.770508 445.824188,440.596252 445.755341,437.116028 
	C445.580750,428.294037 445.871216,419.461731 445.641815,410.642242 
	C445.239563,395.177307 432.400543,382.549988 416.985992,382.249023 
	C412.158783,382.154785 407.328339,382.225769 401.499695,382.221191 
z"/>
<path fill="#000000" opacity="1.000000" stroke="none" 
	d="
M423.791443,267.255127 
	C449.088104,299.588837 432.276703,344.499817 392.483246,351.786011 
	C363.759338,357.045380 335.363251,335.180176 332.569977,306.086914 
	C329.778687,277.014435 350.381012,249.331329 383.739105,248.311218 
	C399.654236,247.824509 413.107666,254.734406 423.791443,267.255127 
M369.465698,267.886353 
	C368.144379,268.593170 366.793365,269.250031 365.506317,270.014526 
	C353.725433,277.012390 346.399323,292.272919 348.517334,305.357513 
	C350.941437,320.332977 361.613678,332.035278 375.800995,335.274506 
	C390.130402,338.546173 405.065887,332.873505 413.230774,321.058197 
	C422.334473,307.884491 421.902618,290.704895 412.153534,278.202576 
	C402.496063,265.817749 386.228882,261.687317 369.465698,267.886353 
z"/>
<path fill="#000000" opacity="1.000000" stroke="none" 
	d="
M692.384277,315.716614 
	C690.079651,316.993713 687.969543,317.272095 685.764709,317.271576 
	C623.960327,317.256683 562.155884,317.258087 500.351471,317.261810 
	C496.464081,317.262024 492.996246,316.312164 491.092896,312.580353 
	C488.694336,307.877655 491.621063,302.119446 496.950470,300.976166 
	C498.394684,300.666351 499.932495,300.728943 501.427368,300.728577 
	C562.398865,300.714539 623.370422,300.712799 684.341919,300.710541 
	C685.174805,300.710510 686.007751,300.718658 686.840576,300.731903 
	C690.605347,300.791687 693.786255,301.989960 695.325500,305.702118 
	C696.919067,309.545197 695.986145,312.864746 692.384277,315.716614 
z"/>
<path fill="#000000" opacity="1.000000" stroke="none" 
	d="
M657.999878,378.353729 
	C605.839111,378.349884 554.178345,378.346497 502.517548,378.334473 
	C500.686127,378.334045 498.816376,378.468079 497.031311,378.156525 
	C493.373108,377.517975 491.033417,375.269196 490.520203,371.542572 
	C489.991638,367.704193 491.356964,364.648102 494.961334,362.867737 
	C497.277618,361.723572 499.798584,361.768677 502.307495,361.769257 
	C562.967163,361.782990 623.626831,361.792969 684.286499,361.789520 
	C687.850891,361.789337 691.441101,361.893250 693.950439,364.836365 
	C695.998962,367.238861 696.781433,370.097534 695.402588,373.210480 
	C693.883362,376.640259 691.146851,378.253693 687.496216,378.277802 
	C677.831055,378.341644 668.165405,378.332733 657.999878,378.353729 
z"/>
<path fill="#000000" opacity="1.000000" stroke="none" 
	d="
M548.000000,439.103760 
	C531.689270,439.102081 515.878296,439.141113 500.067841,439.074310 
	C494.563660,439.051056 491.033691,436.447815 490.395050,432.291962 
	C489.540405,426.730560 493.294556,422.720428 499.671295,422.694061 
	C516.313904,422.625183 532.956970,422.669281 549.599854,422.665619 
	C560.584167,422.663208 571.568542,422.630676 582.552795,422.660767 
	C589.146912,422.678833 592.942932,425.698120 592.967224,430.818115 
	C592.990173,435.655334 588.836121,439.026276 582.451416,439.072449 
	C571.134827,439.154266 559.817200,439.100098 548.000000,439.103760 
z"/>
<path fill="#000000" opacity="1.000000" stroke="none" 
	d="
M688.862793,253.874847 
	C684.467102,258.532166 682.653015,264.024292 681.208069,269.718628 
	C680.654663,271.899353 680.510071,274.882751 677.500793,274.905273 
	C674.712585,274.926208 674.486267,272.054138 674.093872,270.049805 
	C671.445129,256.518829 663.282776,248.349503 650.108887,244.882980 
	C648.323181,244.413086 646.331604,243.807541 646.362976,241.506470 
	C646.394592,239.184494 648.485718,238.679550 650.229797,238.242844 
	C663.643005,234.884232 671.029419,225.922424 674.176453,212.866165 
	C674.657654,210.869965 674.957458,208.109695 677.873413,208.339722 
	C680.556580,208.551392 680.848022,211.119049 681.288879,213.231339 
	C684.024536,226.338562 691.510071,234.968430 704.728699,238.273911 
	C706.476746,238.711014 708.654297,239.099060 708.751465,241.371597 
	C708.864075,244.006744 706.393188,244.235870 704.579468,244.893265 
	C698.933411,246.939713 693.267700,248.933609 688.862793,253.874847 
M682.078857,249.594589 
	C684.328735,246.275116 687.928528,244.362091 691.187927,241.297867 
	C685.300964,237.934814 681.349854,233.111404 677.575195,227.324524 
	C673.826660,233.223969 669.697449,237.687164 663.750793,241.514938 
	C669.858032,245.552521 673.956421,250.376862 677.450500,256.014801 
	C679.144287,253.652267 680.398315,251.903214 682.078857,249.594589 
z"/>
<path fill="#000000" opacity="1.000000" stroke="none" 
	d="
M729.719849,236.354218 
	C728.222595,233.063751 725.530151,231.781158 722.802368,230.497299 
	C720.647095,229.482910 719.068665,227.517639 722.016296,226.326675 
	C727.336487,224.177078 730.138733,220.351608 731.817749,215.231766 
	C731.987732,214.713211 732.710693,214.376022 733.067566,214.053589 
	C735.488953,214.450150 735.519836,216.430847 736.018738,217.868576 
	C737.289551,221.531708 739.338623,224.311966 743.199402,225.501129 
	C744.466431,225.891373 745.870361,226.390457 745.976257,227.971451 
	C746.105286,229.899033 744.366089,230.326736 743.063904,230.899811 
	C739.671875,232.392639 737.441101,234.827286 736.208435,238.331924 
	C735.647522,239.926758 735.638733,242.452301 733.226440,242.299591 
	C730.952637,242.155624 731.126770,239.668579 730.451721,238.066193 
	C730.258728,237.607864 730.056030,237.153625 729.719849,236.354218 
z"/>
<path fill="#000000" opacity="1.000000" stroke="none" 
	d="
M603.077759,675.293457 
	C596.439209,679.816467 592.625061,679.554077 587.323303,674.336365 
	C575.567383,662.767029 563.844360,651.164307 552.109009,639.574097 
	C551.634827,639.105835 551.161194,638.636353 550.704285,638.151428 
	C546.035889,633.196594 545.437378,628.127869 549.088745,624.510986 
	C552.784546,620.850159 557.473389,621.601746 562.570251,626.675842 
	C572.134033,636.196899 581.854919,645.567993 591.174194,655.322754 
	C594.456726,658.758667 596.414978,658.445618 599.542358,655.284424 
	C623.677856,630.887695 647.947266,606.623352 672.200195,582.343018 
	C673.722229,580.819275 675.303162,579.256165 677.123169,578.149536 
	C680.502930,576.094482 683.914551,576.460144 686.704773,579.316833 
	C689.572266,582.252747 690.201355,585.702637 687.953125,589.332947 
	C687.261658,590.449463 686.311523,591.428162 685.378357,592.369385 
	C658.047363,619.936401 630.703552,647.490784 603.077759,675.293457 
z"/>
</svg>